<svg xmlns="http://www.w3.org/2000/svg" width="32" height="32" viewBox="0 0 32 32">
	<title>瑞赢 AI 配置后台</title>
	<defs>
		<linearGradient id="bg" x1="0" y1="0" x2="1" y2="1">
			<stop offset="0" stop-color="#2f6dff" />
			<stop offset="0.55" stop-color="#1a3a86" />
			<stop offset="1" stop-color="#0b1a38" />
		</linearGradient>
	</defs>
	<rect width="32" height="32" rx="8" fill="url(#bg)" />
	<path
		d="M9.5 6.6h13A4.5 4.5 0 0 1 27 11.1v5.9a4.5 4.5 0 0 1-4.5 4.5H15.5L11 26.4v-4.9H9.5A4.5 4.5 0 0 1 5 17v-5.9A4.5 4.5 0 0 1 9.5 6.6Z"
		fill="#ffffff"
	/>
	<path
		d="M16 9.9c.5 2.5 2 3.8 4.6 4-2.6.2-4.1 1.5-4.6 4-.5-2.5-2-3.8-4.6-4 2.6-.2 4.1-1.5 4.6-4Z"
		fill="#38bdf8"
	/>
</svg>
